<svg width="89" height="89" viewBox="0 0 89 89" fill="none" xmlns="http://www.w3.org/2000/svg">
<g clip-path="url(#clip0_17_3272)">
<path d="M44.5001 32.2242C41.9575 32.2242 39.8966 30.1633 39.8966 27.6207V0H49.1036V27.6207C49.1034 30.1634 47.0427 32.2242 44.5001 32.2242Z" fill="#ACB3B7"/>
<path d="M64.4483 1.53449L50.6379 7.67246H49.1034V13.8104C55.3427 13.8104 60.4832 18.4691 61.2642 24.4965L67.5173 19.9484L64.4483 1.53449Z" fill="#858E93"/>
<path d="M39.8966 7.67246H38.3621L24.5517 1.53449L21.4827 19.9484L27.7358 24.4951C28.5168 18.4692 33.6573 13.8104 39.8966 13.8104V7.67246Z" fill="#858E93"/>
<path d="M49.1036 13.8104V27.6209C49.1036 30.1634 47.0426 32.2243 44.5001 32.2243C41.9575 32.2243 39.8966 30.1634 39.8966 27.6209V13.8104C33.1173 13.8104 27.6207 19.3069 27.6207 26.0864V71.5609C27.6207 80.8552 34.891 88.8269 44.1839 88.9973C53.6501 89.1708 61.3793 81.5489 61.3793 72.1211V26.0862C61.3795 19.3069 55.883 13.8104 49.1036 13.8104Z" fill="#D8D8D8"/>
<path d="M27.6207 69.0518V71.5608C27.6207 80.8551 34.891 88.8267 44.1839 88.9972C53.6501 89.1706 61.3793 81.5487 61.3793 72.1209V69.052L60.8699 69.2376C50.2957 73.083 38.7043 73.083 28.1301 69.2376L27.6207 69.0518Z" fill="#ACB3B7"/>
<path d="M27.6207 41.4311H32.2241V38.3621H27.6207V41.4311Z" fill="#ACB3B7"/>
<path d="M27.6207 35.2931H33.7586V32.2242H27.6207V35.2931Z" fill="#ACB3B7"/>
</g>
<defs>
<clipPath id="clip0_17_3272">
<rect width="89" height="89" fill="white"/>
</clipPath>
</defs>
</svg>
