<svg xmlns="http://www.w3.org/2000/svg" width="7.719" height="2.526" viewBox="0 0 7.719 2.526">
  <path id="Union_8" data-name="Union 8" d="M804.08,1232.205a1.258,1.258,0,0,1-.123-2.383,17.6,17.6,0,0,1,2.941,0s-.187.179-.459.429c1.951.294,4.405.692,4.405.692s-2.477.4-4.432.7c.352.318.611.567.611.567s-1.073.072-1.945.072A4.464,4.464,0,0,1,804.08,1232.205Z" transform="translate(-803.124 -1229.75)" fill="#ffe600"/>
  <path id="Union_9" data-name="Union 9" d="M803.684,1231.188a.736.736,0,0,1-.072-1.4,10.3,10.3,0,0,1,1.722,0s-.11.1-.269.251c1.142.172,2.579.405,2.579.405s-1.451.235-2.6.407c.206.187.358.332.358.332s-.628.042-1.139.042A2.618,2.618,0,0,1,803.684,1231.188Z" transform="translate(-803.124 -1229.227)" fill="#fa0"/>
</svg>
