<svg xmlns="http://www.w3.org/2000/svg" xmlns:xlink="http://www.w3.org/1999/xlink" width="146.2" height="70.26" viewBox="0 0 146.2 70.26">
  <defs>
    <clipPath id="clip-path">
      <rect id="Rectangle_18" data-name="Rectangle 18" width="4" height="21" transform="translate(884 509)" fill="#fff"/>
    </clipPath>
    <clipPath id="clip-path-2">
      <rect id="Rectangle_19" data-name="Rectangle 19" width="4" height="21" transform="translate(890 509)" fill="#fff"/>
    </clipPath>
    <clipPath id="clip-path-3">
      <path id="Path_22" data-name="Path 22" d="M189.265-677.689l-11.624-18.7a23.718,23.718,0,0,0-6.892,0c-2.635.616-10.712,9.921-11.118,18.015s5.645,10.947,5.645,10.947l5.473,1.438Z" transform="translate(-159.6 696.667)" fill="none" stroke="#000" stroke-width="1"/>
    </clipPath>
  </defs>
  <g id="Group_22" data-name="Group 22" transform="translate(-846.4 -524.74)">
    <rect id="Rectangle_20" data-name="Rectangle 20" width="7" height="21" rx="3.5" transform="translate(972 566)"/>
    <rect id="Rectangle_21" data-name="Rectangle 21" width="2" height="15" transform="translate(975 584) rotate(-90)"/>
    <g id="wheel2" transform="translate(854.6 562.2)">
      <path id="Path_13" data-name="Path 13" d="M177.2-666.8v5.2h1.206v-5.2Z" transform="translate(-174.606 666.8)"/>
      <g id="Ellipse_6" data-name="Ellipse 6" transform="translate(0 3.8)" fill="#bb1717" stroke="#000" stroke-width="1">
        <circle cx="3" cy="3" r="3" stroke="none"/>
        <circle cx="3" cy="3" r="2.5" fill="none"/>
      </g>
    </g>
    <path id="Path_20" data-name="Path 20" d="M73.718-678.508l2.259-6.461" transform="translate(885.423 1229)" fill="none" stroke="#303030" stroke-width="1"/>
    <path id="Path_17" data-name="Path 17" d="M65.724-685.048,93.849-702.6,55.4-698.285,45.249-685.048Z" transform="translate(895.245 1229.197)" fill="none" stroke="#303030" stroke-width="1"/>
    <path id="Path_19" data-name="Path 19" d="M99.322-684.741l-3.935,10.193" transform="translate(841.281 1229)" fill="none" stroke="#303030" stroke-width="1"/>
    <rect id="Rectangle_17" data-name="Rectangle 17" width="10" height="4" rx="2" transform="translate(982.6 558)"/>
    <path id="Body" d="M177.959-675.629s1.007,12.833,0,14.595-24.157,4.278-44.287,4.026-82.944-9.781-82.944-9.781l18.526-11.356h47.307a2.927,2.927,0,0,0,0,1.9c.356,1,1.981,1.625,1.981,1.625l22-1a4.264,4.264,0,0,0,2.125-1.246,6.016,6.016,0,0,0,.819-2.277s28.938-.755,31.957,0A3.083,3.083,0,0,1,177.959-675.629Z" transform="translate(806.308 1229)" fill="#d83434"/>
    <g id="wheel1" transform="translate(960.6 573.752)">
      <path id="Path_11" data-name="Path 11" d="M70.4-655.248v11H66.8v-11Z" transform="translate(-62.9 653.893)"/>
      <g id="Ellipse_5" data-name="Ellipse 5" transform="translate(0 9.248)" fill="#c20000" stroke="#000" stroke-width="1">
        <circle cx="6" cy="6" r="6" stroke="none"/>
        <circle cx="6" cy="6" r="5.5" fill="none"/>
      </g>
    </g>
    <path id="tail" d="M189.2-678.2l-11.8-18.2s-5.709-1.938-7.876.835-8.273,11.394-9.722,16.248,5.4,11.117,5.4,11.117l5.4,1.4Z" transform="translate(686.8 1229)" fill="#d83434"/>
    <path id="Path_14" data-name="Path 14" d="M57.278-663l16.25-35.528" transform="translate(905.122 1229)" fill="none" stroke="#303030" stroke-width="1"/>
    <path id="Path_15" data-name="Path 15" d="M79.763-663.464,94.339-697.85" transform="translate(861.837 1229)" fill="none" stroke="#303030" stroke-width="1"/>
    <path id="Path_18" data-name="Path 18" d="M76.568-663.464V-697.85" transform="translate(882.464 1229)" fill="none" stroke="#303030" stroke-width="1"/>
    <path id="Path_10" data-name="Path 10" d="M111.4-657.8c0-3.6-4.507-5.022-8.707-5.622a61.123,61.123,0,0,0-20.938-.35A51.933,51.933,0,0,0,64.4-657.8s20.4,2,28.4,2.2S111.4-654.2,111.4-657.8Z" transform="translate(859.8 1229)" fill="#820d0d"/>
    <path id="Path_16" data-name="Path 16" d="M85.8-702.721a60.823,60.823,0,0,0-13.846-1.538c-7.929,0-10.5-.059-17.87,1.538s-8.876,4.97-8.876,4.97,2.159.187,5.715.4a171.664,171.664,0,0,0,19.728.193C81.065-697.869,85.8-702.721,85.8-702.721Z" transform="translate(904.594 1229)" fill="#8d2121"/>
    <path id="Path_21" data-name="Path 21" d="M188.91-696.33c.509-.194.073,29.408.073,29.408l-5.41-1.26s-5.308-2.553-5.372-9.852S188.4-696.136,188.91-696.33Z" transform="translate(668.211 1229)"/>
    <g id="Mask_Group_3" data-name="Mask Group 3" transform="translate(0 39)" clip-path="url(#clip-path)">
      <path id="Body-2" data-name="Body" d="M177.959-675.629s1.007,12.833,0,14.595-24.157,4.278-44.287,4.026-82.787-9.562-82.787-9.562l18.369-11.575h47.307a2.927,2.927,0,0,0,0,1.9c.356,1,1.981,1.625,1.981,1.625l22-1a4.264,4.264,0,0,0,2.125-1.246,6.016,6.016,0,0,0,.819-2.277s28.938-.755,31.957,0A3.083,3.083,0,0,1,177.959-675.629Z" transform="translate(804.308 1190)" fill="#fff"/>
    </g>
    <g id="Mask_Group_2" data-name="Mask Group 2" transform="translate(0 39)" clip-path="url(#clip-path-2)">
      <path id="Body-3" data-name="Body" d="M177.959-675.629s1.007,12.833,0,14.595-24.157,4.278-44.287,4.026-82.787-9.562-82.787-9.562l18.369-11.575h47.307a2.927,2.927,0,0,0,0,1.9c.356,1,1.981,1.625,1.981,1.625l22-1a4.264,4.264,0,0,0,2.125-1.246,6.016,6.016,0,0,0,.819-2.277s28.938-.755,31.957,0A3.083,3.083,0,0,1,177.959-675.629Z" transform="translate(804.308 1190)" fill="#fff"/>
    </g>
    <g id="Mask_Group_1" data-name="Mask Group 1" transform="translate(846.399 531.93)" clip-path="url(#clip-path-3)">
      <rect id="Rectangle_16" data-name="Rectangle 16" width="29.606" height="3" transform="translate(0 17.667)" fill="#fff"/>
    </g>
    <path id="Path_26" data-name="Path 26" d="M101.085-660.333l11.665,1.4s-4.582-3.5-7-3.8S101.085-660.333,101.085-660.333Z" transform="translate(803 1229)" fill="#800"/>
  </g>
</svg>
