<svg width="239" height="131" viewBox="0 0 239 131" fill="none" xmlns="http://www.w3.org/2000/svg">
<path d="M144.991 25.1198L147.223 33.1875L238.001 8.06766L235.769 -9.11092e-06L144.991 25.1198Z" fill="#0B9B53"/>
<path d="M165.695 27.1141L175.6 40.3227L128.933 47.378L82.5746 40.3227L97.7699 20.0658C99.5614 17.6831 102.368 16.2826 105.348 16.2826H144.031C152.559 16.2826 160.583 20.2945 165.695 27.1141Z" fill="#06B559"/>
<path d="M125.996 16.2826H105.349C102.369 16.2826 99.5619 17.6831 97.7704 20.0658L82.5751 40.3227H103.222L118.418 20.0658C120.209 17.6836 123.016 16.2826 125.996 16.2826Z" fill="#0B9B53"/>
<path d="M198.028 43.0968L212.364 58.7938L119.259 67.6892L13.0823 58.7938L31.6449 42.6836C33.3992 41.1608 35.6448 40.3227 37.968 40.3227H82.5742H175.6H191.737C194.131 40.3227 196.414 41.33 198.028 43.0968Z" fill="#06B559"/>
<path d="M31.6449 42.6841L13.0823 58.7942H48.7967L70.0804 40.3232H37.9689C35.6452 40.3227 33.4001 41.1613 31.6449 42.6841Z" fill="#0B9B53"/>
<path d="M233.683 58.7938C236.805 58.7938 238.384 62.5543 236.197 64.7827L204.077 97.5162H204.065C202.201 83.3755 146.554 85.3901 146.554 101.345H139.294C139.294 85.3901 81.5255 85.3901 81.5255 101.345H74.2653C74.2653 85.3901 23.5786 79.4361 19.0419 89.4527L18.3609 89.3858L2.41157 77.6269C-0.646556 75.3725 -0.825981 70.8641 2.04389 68.3735L13.0832 58.7938H212.365H233.683Z" fill="#088443"/>
<path d="M175.436 112.496C181.594 112.496 186.586 107.505 186.586 101.347C186.586 95.1892 181.594 90.1974 175.436 90.1974C169.278 90.1974 164.287 95.1892 164.287 101.347C164.287 107.505 169.278 112.496 175.436 112.496Z" fill="#CCCCCC"/>
<path d="M110.408 112.869C116.771 112.869 121.93 107.71 121.93 101.347C121.93 94.9836 116.771 89.8251 110.408 89.8251C104.045 89.8251 98.8861 94.9836 98.8861 101.347C98.8861 107.71 104.045 112.869 110.408 112.869Z" fill="#CCCCCC"/>
<path d="M45.3826 89.8228C51.7457 89.8228 56.9044 94.9815 56.9044 101.345C56.9044 107.708 51.7457 112.866 45.3826 112.866C39.013 112.866 33.8547 107.708 33.8547 101.345C33.8547 94.9815 39.0125 89.8228 45.3826 89.8228Z" fill="#CCCCCC"/>
<path d="M204.066 97.5161C204.238 98.7717 204.322 100.049 204.322 101.344C204.322 117.299 191.392 130.229 175.438 130.229C159.489 130.229 146.554 117.299 146.554 101.344C146.554 85.3901 159.489 72.4603 175.438 72.4603C190.098 72.4603 202.202 83.3755 204.066 97.5161ZM185.472 101.344C185.472 95.8028 180.98 91.3106 175.438 91.3106C169.897 91.3106 165.405 95.8028 165.405 101.344C165.405 106.885 169.897 111.377 175.438 111.377C180.98 111.378 185.472 106.885 185.472 101.344Z" fill="#808080"/>
<path d="M110.41 72.4603C126.365 72.4603 139.294 85.3901 139.294 101.344C139.294 117.299 126.365 130.229 110.41 130.229C94.4558 130.229 81.526 117.299 81.526 101.344C81.526 85.3901 94.4558 72.4603 110.41 72.4603ZM120.444 101.344C120.444 95.8028 115.951 91.3106 110.41 91.3106C104.869 91.3106 100.377 95.8028 100.377 101.344C100.377 106.885 104.869 111.377 110.41 111.377C115.951 111.378 120.444 106.885 120.444 101.344Z" fill="#808080"/>
<path d="M45.3816 72.4603C61.3304 72.4603 74.2658 85.3901 74.2658 101.344C74.2658 117.299 61.3304 130.229 45.3816 130.229C29.4272 130.229 16.4918 117.299 16.4918 101.344C16.4918 97.1034 17.4071 93.0798 19.0419 89.4527C23.5791 79.4356 33.6632 72.4603 45.3816 72.4603ZM55.4155 101.344C55.4155 95.8028 50.9233 91.3106 45.3821 91.3106C39.8352 91.3106 35.3431 95.8028 35.3431 101.344C35.3431 106.885 39.8352 111.377 45.3821 111.377C50.9229 111.378 55.4155 106.885 55.4155 101.344Z" fill="#808080"/>
<path d="M175.438 91.3107C180.98 91.3107 185.472 95.8028 185.472 101.344C185.472 106.885 180.98 111.377 175.438 111.377C169.897 111.377 165.405 106.885 165.405 101.344C165.405 95.8028 169.897 91.3107 175.438 91.3107ZM175.438 85.7303C166.829 85.7303 159.825 92.7349 159.825 101.344C159.825 109.954 166.829 116.958 175.438 116.958C184.047 116.958 191.052 109.953 191.052 101.344C191.052 92.7349 184.047 85.7303 175.438 85.7303Z" fill="#4D4D4D"/>
<path d="M110.41 91.3107C115.951 91.3107 120.444 95.8028 120.444 101.344C120.444 106.885 115.951 111.377 110.41 111.377C104.869 111.377 100.377 106.885 100.377 101.344C100.376 95.8028 104.868 91.3107 110.41 91.3107ZM110.41 85.7303C101.801 85.7303 94.7965 92.7349 94.7965 101.344C94.7965 109.954 101.801 116.958 110.41 116.958C119.019 116.958 126.024 109.953 126.024 101.344C126.024 92.7349 119.019 85.7303 110.41 85.7303Z" fill="#4D4D4D"/>
<path d="M45.3816 91.3107C50.9229 91.3107 55.415 95.8028 55.415 101.344C55.415 106.885 50.9229 111.377 45.3816 111.377C39.8348 111.377 35.3426 106.885 35.3426 101.344C35.3426 95.8028 39.8348 91.3107 45.3816 91.3107ZM45.3816 85.7303C36.7687 85.7303 29.7623 92.7349 29.7623 101.344C29.7623 109.954 36.7692 116.958 45.3816 116.958C53.9912 116.958 60.9953 109.953 60.9953 101.344C60.9958 92.7349 53.9912 85.7303 45.3816 85.7303Z" fill="#4D4D4D"/>
</svg>
